<svg data-v-0dd9719b="" version="1.0" xmlns="http://www.w3.org/2000/svg" xmlns:xlink="http://www.w3.org/1999/xlink" width="100%" height="100%" viewBox="0 0 340.000000 250.000000" preserveAspectRatio="xMidYMid meet" color-interpolation-filters="sRGB" style="margin: auto;"> <rect data-v-0dd9719b="" x="0" y="0" width="100%" height="100%" fill="#fff" fill-opacity="1" class="background"></rect> <rect data-v-0dd9719b="" x="0" y="0" width="100%" height="100%" fill="url(#watermark)" fill-opacity="1" class="watermarklayer"></rect> <g data-v-0dd9719b="" fill="#333" class="icon-text-wrapper icon-svg-group iconsvg" transform="translate(48.21125030517578,94.96395683288574)"><g class="iconsvg-imagesvg" transform="translate(0,0)"><g><rect fill="#333" fill-opacity="0" stroke-width="2" x="0" y="0" width="60" height="60.07208650380456" class="image-rect"></rect> <svg x="0" y="0" width="60" height="60.07208650380456" filtersec="colorsb853585570" class="image-svg-svg primary" style="overflow: visible;"><svg xmlns="http://www.w3.org/2000/svg" viewBox="0 -0.00001430726933904225 99.8800048828125 100.00004577636719"><g fill-rule="evenodd"><path d="M10.85 81.18L46.64 87V76.88l-40.3-2.39a49.59 49.59 0 0 0 4.51 6.69zM51.52 100v-8.74l-37.47-6.45A49.85 49.85 0 0 0 49.94 100h1.58zM1.57 62.7l63.7 1.11v10L3.15 67.68a48.89 48.89 0 0 1-1.58-5zM.49 57.48l56.82 3.27V50.54L0 52.53c.08 1.67.25 3.32.49 4.95zM0 47.19L44.45 49V38.39l-43.94 4C.27 44 .11 45.58 0 47.19zM1.62 37.09l32.83-1.35v-10l-30.66 5a49 49 0 0 0-2.17 6.35zM6.32 25.55l35.4-3.08V11.64l-30 6.12a49.44 49.44 0 0 0-5.41 7.79zM49.63 0v9.2L15.26 14A49.84 49.84 0 0 1 49.63 0z" fill="#2491eb"></path><path d="M90 80l-43.36 7V76.88l47.12-2.8A50.6 50.6 0 0 1 90 80zM51.52 100v-8.74l34.33-6.48A49.82 49.82 0 0 1 51.52 100zM96.25 68.86l-31 5v-10l33-1.08a49 49 0 0 1-2 6.13zM99.42 57.18l-42.11 3.57V50.54l42.57 1.71c-.07 1.66-.23 3.31-.46 4.93zM99.88 47.67L44.45 49V38.39l54.81 3.38a49.74 49.74 0 0 1 .62 5.9zM98.19 36.88l-63.74-1.14v-10l62 5.95a48.69 48.69 0 0 1 1.72 5.2zM93.78 26l-52.06-3.53V11.64l47.39 7.29a50.45 50.45 0 0 1 4.67 7zM49.63 0v9.2l35.18 5A49.82 49.82 0 0 0 49.94 0z" fill="#145593"></path></g></svg></svg> <!----></g></g> <g transform="translate(67,6.304792404174805)"><g data-gra="path-name" fill-rule="" class="tp-name iconsvg-namesvg" transform="translate(0,0)"><g transform="scale(1)"><g><path d="M23.26 3.42L23.26 3.42 20.95 2.81 22.5-2.92 22.5-27.54Q22.5-28.04 22.84-28.39 23.18-28.73 23.69-28.73L23.69-28.73 32.44-28.73Q32.94-28.73 33.28-28.39 33.62-28.04 33.62-27.54L33.62-27.54 33.62 1.98Q33.62 2.48 33.28 2.83 32.94 3.17 32.44 3.17L32.44 3.17 26.93 3.17 26.93 0.79 31.28 0.79 31.28-8.39 24.88-8.39 24.88-2.74Q24.88-2.66 24.8-2.45L24.8-2.45 23.26 3.42ZM19.58 2.63L19.58 2.63 11.48 2.63Q10.98 2.63 10.64 2.3 10.3 1.98 10.3 1.48L10.3 1.48 10.3-15.62Q10.3-16.13 10.64-16.47 10.98-16.81 11.48-16.81L11.48-16.81 14.36-16.81 14.36-22.82 9.72-22.82 9.72-25.2 14.36-25.2 14.36-29.02 16.7-29.02 16.7-25.2 21.35-25.2 21.35-22.82 16.7-22.82 16.7-16.81 19.58-16.81Q20.09-16.81 20.43-16.47 20.77-16.13 20.77-15.62L20.77-15.62 20.77 1.48Q20.77 1.98 20.43 2.3 20.09 2.63 19.58 2.63L19.58 2.63ZM3.96 3.46L3.96 3.46 1.69 2.81 6.3-13.36 1.22-17.75 2.77-19.51 8.42-14.65Q8.96-14.18 8.78-13.43L8.78-13.43 3.96 3.46ZM9.47-23.33L7.88-21.56 1.62-27.22 3.2-28.98 9.47-23.33ZM31.28-19.94L31.28-26.35 24.88-26.35 24.88-19.94 31.28-19.94ZM24.88-17.57L24.88-10.76 31.28-10.76 31.28-17.57 24.88-17.57ZM12.67-14.47L12.67 0.29 18.4 0.29 18.4-14.47 12.67-14.47ZM70.13 3.13L70.13 3.13 57.92 3.13Q57.42 3.13 57.08 2.79 56.74 2.45 56.74 1.94L56.74 1.94 56.74-29.02 59.11-29.02 59.11-16.74 69.44-23.83 70.78-21.89 59.11-13.86 59.11 0.79 70.13 0.79 70.13 3.13ZM47.05-6.52L38.56-0.65 37.22-2.63 47.05-9.36 47.05-20.48 37.87-20.48 37.87-22.82 47.05-22.82 47.05-29.02 49.39-29.02 49.39 3.13 47.05 3.13 47.05-6.52ZM105.37-9.54L105.37-9.54 91.94-9.54 91.94-5.33 106.09-5.33 106.09-2.99 91.94-2.99 91.94 3.13 89.6 3.13 89.6-2.99 73.84-2.99 73.84-5.33 89.6-5.33 89.6-9.54 75.64-9.54Q74.84-9.54 74.56-10.22L74.56-10.22Q74.41-10.51 74.45-10.85 74.48-11.2 74.7-11.48L74.7-11.48 79.74-17.6 74.2-17.6 74.2-19.98 81.68-19.98 85.25-24.3 87.08-22.79 84.74-19.98 105.77-19.98 105.77-17.6 82.8-17.6 78.12-11.92 89.6-11.92 89.6-16.38 91.94-16.38 91.94-11.92 105.37-11.92 105.37-9.54ZM105.34-21.02L105.34-21.02 103-21.02 103-26.14 76.82-26.14 76.82-21.02 74.48-21.02 74.48-27.32Q74.48-27.83 74.83-28.17 75.17-28.51 75.67-28.51L75.67-28.51 104.15-28.51Q104.65-28.51 104.99-28.17 105.34-27.83 105.34-27.32L105.34-27.32 105.34-21.02ZM131.47-1.22L131.47-1.22 129.1-1.22 129.1-7.7 121.03-7.7 121.03-0.9 118.69-0.9 118.69-21.6Q118.69-22.1 119.03-22.45 119.38-22.79 119.88-22.79L119.88-22.79 122.8-22.79 121.72-24.55 123.73-25.78 125.53-22.79 135.04-22.79 137.77-26.42 118.4-26.42 118.4-28.8 140.11-28.8Q140.83-28.8 141.19-28.15L141.19-28.15Q141.48-27.47 141.08-26.89L141.08-26.89 137.99-22.79 140.26-22.79Q140.76-22.79 141.1-22.45 141.44-22.1 141.44-21.6L141.44-21.6 141.44-2.81Q141.44-2.3 141.1-1.96 140.76-1.62 140.26-1.62L140.26-1.62 135.25-1.62 135.25-4 139.07-4 139.07-7.7 131.47-7.7 131.47-1.22ZM111.2 3.49L111.2 3.49 109.91 1.51 113.69-0.9 113.69-17.68 110.05-17.68 110.05-20.05 114.88-20.05Q115.38-20.05 115.72-19.71 116.06-19.37 116.06-18.86L116.06-18.86 116.06-0.86 118.4 0.72 141.95 0.72 141.95 3.1 118.01 3.1Q117.65 3.1 117.32 2.88L117.32 2.88 114.84 1.12 111.2 3.49ZM116.28-22.1L114.08-21.24 111.31-28.08 113.51-28.98 116.28-22.1ZM121.03-20.45L121.03-16.45 129.1-16.45 129.1-20.45 121.03-20.45ZM139.07-16.45L139.07-20.45 131.47-20.45 131.47-16.45 139.07-16.45ZM121.03-14.11L121.03-10.08 129.1-10.08 129.1-14.11 121.03-14.11ZM131.47-14.11L131.47-10.08 139.07-10.08 139.07-14.11 131.47-14.11ZM176.62 3.13L176.62 3.13 162.94 3.13 162.94 0.79 169.31 0.79 169.31-4.39 164.63-4.39Q164.12-4.39 163.78-4.73 163.44-5.08 163.44-5.58L163.44-5.58 163.44-25.67Q163.44-26.17 163.78-26.51 164.12-26.86 164.63-26.86L164.63-26.86 169.31-26.86 169.31-29.02 171.65-29.02 171.65-26.86 176.33-26.86Q176.83-26.86 177.17-26.51 177.52-26.17 177.52-25.67L177.52-25.67 177.52-5.58Q177.52-5.08 177.17-4.73 176.83-4.39 176.33-4.39L176.33-4.39 171.65-4.39 171.65 0.79 175.18 0.79 174.38-2.88 176.69-3.38 177.77 1.73Q177.88 2.27 177.55 2.7L177.55 2.7Q177.16 3.13 176.62 3.13L176.62 3.13ZM160.56-16.13L160.56-16.13 147.6-16.13Q147.1-16.13 146.75-16.45 146.41-16.78 146.41-17.28L146.41-17.28 146.41-24.16Q146.41-24.66 146.75-25 147.1-25.34 147.6-25.34L147.6-25.34 160.56-25.34Q161.06-25.34 161.41-25 161.75-24.66 161.75-24.16L161.75-24.16 161.75-17.28Q161.75-16.78 161.41-16.45 161.06-16.13 160.56-16.13L160.56-16.13ZM148.28 3.2L148.28 3.2 145.91 3.2 145.91-13.46Q145.91-13.97 146.25-14.31 146.59-14.65 147.1-14.65L147.1-14.65 161.14-14.65Q161.64-14.65 161.98-14.31 162.32-13.97 162.32-13.46L162.32-13.46 162.32 1.94Q162.32 2.45 161.98 2.79 161.64 3.13 161.14 3.13L161.14 3.13 157.07 3.13 157.07 0.76 159.95 0.76 159.95-12.31 148.28-12.31 148.28 3.2ZM162.4-28.87L162.4-26.5 145.8-26.5 145.8-28.87 162.4-28.87ZM165.82-24.48L165.82-6.77 169.31-6.77 169.31-24.48 165.82-24.48ZM171.65-6.77L175.14-6.77 175.14-24.48 171.65-24.48 171.65-6.77ZM148.79-22.97L148.79-18.47 159.37-18.47 159.37-22.97 148.79-22.97ZM155.16-5.08L155.16 2.81 152.82 2.81 152.82-5.08 148.93-5.08 148.93-7.45 150.59-7.45 149.51-10.15 151.7-11.02 152.93-7.96 151.63-7.45 155.34-7.45 156.53-10.94 158.76-10.19 157.82-7.45 159.23-7.45 159.23-5.08 155.16-5.08Z" transform="translate(-1.2200000286102295, 29.020000457763672)"></path></g> <!----> <!----> <!----> <!----> <!----> <!----> <!----></g></g> <g data-gra="path-slogan" fill-rule="" class="tp-slogan iconsvg-slogansvg" fill="#333" transform="translate(5,38.51000213623047)"><rect x="0" height="1" y="3.9750003814697266" width="14.40374755859375"></rect> <rect height="1" y="3.9750003814697266" width="14.40374755859375" x="152.1737518310547"></rect> <g transform="translate(17.40374755859375,0)"><g transform="scale(1)"><path d="M2.06-5.06L6.56-5.06L6.56-8.58L7.73-8.58L7.73 0L6.56 0L6.56-3.98L2.06-3.98L2.06 0L0.89 0L0.89-8.58L2.06-8.58L2.06-5.06ZM15.19-3.19L15.19-8.58L16.36-8.58L16.36-3.05Q16.22 0.05 12.84 0.14L12.84 0.14Q9.70 0.05 9.56-2.86L9.56-2.86L9.56-8.58L10.73-8.58L10.73-3.19Q10.78-0.84 12.89-0.80L12.89-0.80Q15.19-0.84 15.19-3.19L15.19-3.19ZM21.38-7.64L19.31-7.64L19.31-4.97L21.38-4.97Q23.20-4.92 23.16-6.38L23.16-6.38Q23.16-7.64 21.38-7.64L21.38-7.64ZM21.84 0L18.14 0L18.14-8.58L21.94-8.58Q24.23-8.48 24.33-6.42L24.33-6.42Q24.33-5.16 23.20-4.64L23.20-4.64Q24.80-4.08 24.80-2.53L24.80-2.53Q24.66-0.09 21.84 0L21.84 0ZM21.56-3.98L19.31-3.98L19.31-0.98L21.80-0.98Q23.58-1.03 23.63-2.53L23.63-2.53Q23.63-3.98 21.56-3.98L21.56-3.98ZM27.42-1.03L32.58-1.03L32.58 0L26.25 0L26.25-8.58L32.48-8.58L32.48-7.59L27.42-7.59L27.42-4.92L32.11-4.92L32.11-3.89L27.42-3.89L27.42-1.03ZM34.27-8.58L35.44-8.58L35.44 0L34.27 0L34.27-8.58ZM40.03-1.92L40.03-2.77L41.11-2.77L41.11-2.16Q41.11-0.75 42.42-0.75L42.42-0.75Q43.78-0.75 43.78-2.25L43.78-2.25L43.78-8.58L44.95-8.58L44.95-2.30Q44.91 0.09 42.47 0.14L42.47 0.14Q40.17 0.09 40.03-1.92L40.03-1.92ZM52.41-3.19L52.41-8.58L53.58-8.58L53.58-3.05Q53.44 0.05 50.06 0.14L50.06 0.14Q46.92 0.05 46.78-2.86L46.78-2.86L46.78-8.58L47.95-8.58L47.95-3.19Q48-0.84 50.11-0.80L50.11-0.80Q52.41-0.84 52.41-3.19L52.41-3.19ZM56.77-8.58L61.08-1.64L61.08-8.58L62.20-8.58L62.20 0L60.89 0L56.53-6.94L56.48-6.94L56.48 0L55.36 0L55.36-8.58L56.77-8.58ZM66.19-7.59L63.28-7.59L63.28-8.58L70.22-8.58L70.22-7.59L67.31-7.59L67.31 0L66.19 0L66.19-7.59ZM78.05-4.27L78.05-4.27Q77.86-7.64 75.05-7.83L75.05-7.83Q72.19-7.69 72.05-4.27L72.05-4.27Q72.19-0.94 75.05-0.80L75.05-0.80Q77.86-0.98 78.05-4.27ZM79.22-4.27L79.22-4.27Q78.94 0 75.05 0.14L75.05 0.14Q71.11 0 70.83-4.27L70.83-4.27Q71.06-8.72 75.05-8.81L75.05-8.81Q78.94-8.67 79.22-4.27ZM81.98-8.58L86.30-1.64L86.30-8.58L87.42-8.58L87.42 0L86.11 0L81.75-6.94L81.70-6.94L81.70 0L80.58 0L80.58-8.58L81.98-8.58ZM95.63-3.61L93-3.61L93-4.59L96.75-4.59L96.75 0L96 0L95.72-1.08Q94.73 0.09 92.91 0.14L92.91 0.14Q91.17 0.14 90.23-0.75L90.23-0.75Q88.83-2.06 88.88-4.36L88.88-4.36Q89.20-8.63 92.95-8.81L92.95-8.81Q96.14-8.63 96.61-6L96.61-6L95.48-6Q95.02-7.78 92.91-7.83L92.91-7.83Q90.23-7.64 90.09-4.31L90.09-4.31Q90.09-0.75 92.95-0.75L92.95-0.75Q93.98-0.75 94.73-1.31L94.73-1.31Q95.67-2.06 95.63-3.61L95.63-3.61ZM102.66-3.70L99.84-3.70L99.84 0L98.67 0L98.67-8.58L102.66-8.58Q105.52-8.58 105.52-6.28L105.52-6.28Q105.52-4.88 104.30-4.22L104.30-4.22Q105.33-3.94 105.33-2.58L105.33-2.58L105.42-1.03Q105.38-0.38 105.84-0.19L105.84-0.19L105.84 0L104.39 0Q104.25-0.61 104.20-2.16L104.20-2.16Q104.25-3.70 102.66-3.70L102.66-3.70ZM102.75-7.64L99.84-7.64L99.84-4.69L102.56-4.69Q104.30-4.69 104.30-6.19L104.30-6.19Q104.30-7.64 102.75-7.64L102.75-7.64ZM113.95-4.27L113.95-4.27Q113.77-7.64 110.95-7.83L110.95-7.83Q108.09-7.69 107.95-4.27L107.95-4.27Q108.09-0.94 110.95-0.80L110.95-0.80Q113.77-0.98 113.95-4.27ZM115.13-4.27L115.13-4.27Q114.84 0 110.95 0.14L110.95 0.14Q107.02 0 106.73-4.27L106.73-4.27Q106.97-8.72 110.95-8.81L110.95-8.81Q114.84-8.67 115.13-4.27ZM117.89-8.58L122.20-1.64L122.20-8.58L123.33-8.58L123.33 0L122.02 0L117.66-6.94L117.61-6.94L117.61 0L116.48 0L116.48-8.58L117.89-8.58ZM131.53-3.61L128.91-3.61L128.91-4.59L132.66-4.59L132.66 0L131.91 0L131.63-1.08Q130.64 0.09 128.81 0.14L128.81 0.14Q127.08 0.14 126.14-0.75L126.14-0.75Q124.73-2.06 124.78-4.36L124.78-4.36Q125.11-8.63 128.86-8.81L128.86-8.81Q132.05-8.63 132.52-6L132.52-6L131.39-6Q130.92-7.78 128.81-7.83L128.81-7.83Q126.14-7.64 126-4.31L126-4.31Q126-0.75 128.86-0.75L128.86-0.75Q129.89-0.75 130.64-1.31L130.64-1.31Q131.58-2.06 131.53-3.61L131.53-3.61Z" transform="translate(-0.890625, 8.8125)"></path></g></g></g></g></g><defs v-gra="od"></defs></svg>